<svg aria-hidden="true" style="position: absolute; width: 0; height: 0; overflow: hidden;" version="1.1" xmlns="http://www.w3.org/2000/svg" xmlns:xlink="http://www.w3.org/1999/xlink">
<defs>
<symbol id="icon-check" viewBox="0 0 20 20">
<title>check</title>
<path d="M8.294 16.998c-0.435 0-0.847-0.203-1.111-0.553l-3.573-4.721c-0.465-0.613-0.344-1.486 0.27-1.951 0.615-0.467 1.488-0.344 1.953 0.27l2.351 3.104 5.911-9.492c0.407-0.652 1.267-0.852 1.921-0.445s0.854 1.266 0.446 1.92l-6.984 11.21c-0.242 0.391-0.661 0.635-1.12 0.656-0.022 0.002-0.042 0.002-0.064 0.002z"></path>
</symbol>
<symbol id="icon-github" viewBox="0 0 32 32">
<title>github</title>
<path d="M16 0.396c-8.84 0-16 7.164-16 16 0 7.071 4.584 13.067 10.94 15.18 0.8 0.151 1.093-0.344 1.093-0.769 0-0.38-0.013-1.387-0.020-2.72-4.451 0.965-5.389-2.147-5.389-2.147-0.728-1.847-1.78-2.34-1.78-2.34-1.449-0.992 0.112-0.972 0.112-0.972 1.607 0.112 2.451 1.648 2.451 1.648 1.427 2.447 3.745 1.74 4.66 1.331 0.144-1.035 0.556-1.74 1.013-2.14-3.553-0.4-7.288-1.776-7.288-7.907 0-1.747 0.62-3.173 1.647-4.293-0.18-0.404-0.72-2.031 0.14-4.235 0 0 1.34-0.429 4.4 1.64 1.28-0.356 2.64-0.532 4-0.54 1.36 0.008 2.72 0.184 4 0.54 3.040-2.069 4.38-1.64 4.38-1.64 0.86 2.204 0.32 3.831 0.16 4.235 1.020 1.12 1.64 2.547 1.64 4.293 0 6.147-3.74 7.5-7.3 7.893 0.56 0.48 1.080 1.461 1.080 2.96 0 2.141-0.020 3.861-0.020 4.381 0 0.42 0.28 0.92 1.1 0.76 6.401-2.099 10.981-8.099 10.981-15.159 0-8.836-7.164-16-16-16z"></path>
</symbol>
<symbol id="icon-gitlab" viewBox="0 0 32 32">
<title>gitlab</title>
<path fill="#fca121" style="fill: var(--color1, #fca121)" d="M6.459 1.205c-0.591 0.001-1.092 0.383-1.271 0.913l-0.003 0.009-3.373 10.377c0 0.009-0.007 0.016-0.009 0.027l-1.709 5.248c-0.060 0.177-0.094 0.381-0.094 0.593 0 0.635 0.309 1.198 0.785 1.546l0.005 0.004 14.763 10.727c0.123 0.090 0.277 0.144 0.443 0.144 0.17 0 0.326-0.056 0.452-0.15l-0.002 0.001 14.765-10.72c0.482-0.352 0.791-0.915 0.791-1.55 0-0.213-0.035-0.418-0.099-0.61l0.004 0.014-1.68-5.156c-0.010-0.053-0.025-0.099-0.043-0.143l0.002 0.005-3.368-10.367c-0.184-0.535-0.682-0.912-1.269-0.912-0.003 0-0.005 0-0.008 0h0c-0.003-0-0.007-0-0.010-0-0.585 0-1.082 0.382-1.252 0.911l-0.003 0.009-3.208 9.877h-10.131l-3.213-9.877c-0.173-0.538-0.67-0.92-1.255-0.92-0.001 0-0.002 0-0.002 0h0zM6.451 3.099l2.899 8.904h-5.784zM25.555 3.099l2.891 8.904h-5.789zM11.429 13.512h9.149l-2.867 8.824-1.712 5.255zM4.076 13.519h5.763l4.115 12.667zM22.167 13.519h5.768l-9.883 12.669 3.945-12.144zM2.8 14.349l9.304 11.929-10.424-7.576c-0.103-0.075-0.169-0.195-0.169-0.33 0-0.045 0.007-0.087 0.020-0.128l-0.001 0.003zM29.2 14.349l1.269 3.896c0.013 0.038 0.020 0.081 0.020 0.126 0 0.134-0.065 0.254-0.166 0.328l-0.001 0.001v0.003l-10.427 7.573 0.033-0.047z"></path>
</symbol>
<symbol id="icon-gmail" viewBox="0 0 32 32">
<title>gmail</title>
<path fill="#d14836" style="fill: var(--color2, #d14836)" d="M32 6v20c0 1.133-0.867 2-2 2h-2v-18.151l-12 8.617-12-8.617v18.151h-2c-1.135 0-2-0.867-2-2v-20c0-0.567 0.216-1.067 0.575-1.424 0.359-0.363 0.86-0.576 1.425-0.576h0.667l13.333 9.667 13.333-9.667h0.667c0.567 0 1.067 0.216 1.425 0.576 0.36 0.357 0.575 0.857 0.575 1.424z"></path>
</symbol>
<symbol id="icon-linkedin" viewBox="0 0 32 32">
<title>linkedin</title>
<path fill="#0077b5" style="fill: var(--color3, #0077b5)" d="M27.263 27.269h-4.739v-7.425c0-1.771-0.036-4.049-2.469-4.049-2.471 0-2.848 1.927-2.848 3.919v7.556h-4.739v-15.269h4.552v2.081h0.061c0.636-1.2 2.183-2.467 4.493-2.467 4.801 0 5.689 3.16 5.689 7.273zM7.116 9.911c-1.525 0-2.751-1.235-2.751-2.753 0-1.517 1.227-2.751 2.751-2.751 1.52 0 2.752 1.233 2.752 2.751 0 1.519-1.233 2.753-2.752 2.753zM9.492 27.269h-4.752v-15.269h4.752zM29.633 0h-27.272c-1.305 0-2.361 1.032-2.361 2.305v27.389c0 1.275 1.056 2.305 2.361 2.305h27.268c1.304 0 2.371-1.031 2.371-2.305v-27.389c0-1.273-1.067-2.305-2.371-2.305z"></path>
</symbol>
</defs>
</svg>
